HIERARCHY
ROOT Hips
{
	OFFSET 0.00000 0.00000 0.00000
	CHANNELS 6 Xposition Yposition Zposition Zrotation Yrotation Xrotation 
	JOINT LHipJoint
	{
		OFFSET 0 0 0
		CHANNELS 3 Zrotation Yrotation Xrotation
		JOINT LeftUpLeg
		{
			OFFSET 1.62329 -1.80800 0.67318
			CHANNELS 3 Zrotation Yrotation Xrotation
			JOINT LeftLeg
			{
				OFFSET 2.57139 -7.06484 0.00000
				CHANNELS 3 Zrotation Yrotation Xrotation
				JOINT LeftFoot
				{
					OFFSET 2.52017 -6.92413 0.00000
					CHANNELS 3 Zrotation Yrotation Xrotation
					JOINT LeftToeBase
					{
						OFFSET 0.23295 -0.64001 2.10214
						CHANNELS 3 Zrotation Yrotation Xrotation
						End Site
						{
							OFFSET 0.00000 -0.00000 1.10139
						}
					}
				}
			}
		}
	}
	JOINT RHipJoint
	{
		OFFSET 0 0 0
		CHANNELS 3 Zrotation Yrotation Xrotation
		JOINT RightUpLeg
		{
			OFFSET -1.48061 -1.80800 0.67318
			CHANNELS 3 Zrotation Yrotation Xrotation
			JOINT RightLeg
			{
				OFFSET -2.63258 -7.23296 0.00000
				CHANNELS 3 Zrotation Yrotation Xrotation
				JOINT RightFoot
				{
					OFFSET -2.54779 -7.00000 0.00000
					CHANNELS 3 Zrotation Yrotation Xrotation
					JOINT RightToeBase
					{
						OFFSET -0.23067 -0.63376 2.12161
						CHANNELS 3 Zrotation Yrotation Xrotation
						End Site
						{
							OFFSET -0.00000 -0.00000 1.11000
						}
					}
				}
			}
		}
	}
	JOINT LowerBack
	{
		OFFSET 0 0 0
		CHANNELS 3 Zrotation Yrotation Xrotation
		JOINT Spine
		{
			OFFSET -0.02108 2.07573 -0.16981
			CHANNELS 3 Zrotation Yrotation Xrotation
			JOINT Spine1
			{
				OFFSET 0.05070 2.08439 -0.03141
				CHANNELS 3 Zrotation Yrotation Xrotation
				JOINT Neck
				{
					OFFSET 0 0 0
					CHANNELS 3 Zrotation Yrotation Xrotation
					JOINT Neck1
					{
						OFFSET -0.10731 1.60408 0.31370
						CHANNELS 3 Zrotation Yrotation Xrotation
						JOINT Head
						{
							OFFSET 0.08411 1.65679 -0.30822
							CHANNELS 3 Zrotation Yrotation Xrotation
							End Site
							{
								OFFSET 0.03911 1.69149 -0.14146
							}
						}
					}
				}
				JOINT LeftShoulder
				{
					OFFSET 0 0 0
					CHANNELS 3 Zrotation Yrotation Xrotation
					JOINT LeftArm
					{
						OFFSET 3.52315 0.73219 -0.54694
						CHANNELS 3 Zrotation Yrotation Xrotation
						JOINT LeftForeArm
						{
							OFFSET 5.32462 -0.00000 -0.00000
							CHANNELS 3 Zrotation Yrotation Xrotation
							JOINT LeftHand
							{
								OFFSET 3.48402 -0.00000 -0.00000
								CHANNELS 3 Zrotation Yrotation Xrotation
								JOINT LeftFingerBase
								{
									OFFSET 0 0 0
									CHANNELS 3 Zrotation Yrotation Xrotation
									JOINT LeftHandIndex1
									{
										OFFSET 0.57248 -0.00000 -0.00000
										CHANNELS 3 Zrotation Yrotation Xrotation
										End Site
										{
											OFFSET 0.46154 -0.00000 -0.00000
										}
									}
								}
								JOINT LThumb
								{
									OFFSET 0 0 0
									CHANNELS 3 Zrotation Yrotation Xrotation
									End Site
									{
										OFFSET 0.46859 -0.00000 0.46859
									}
								}
							}
						}
					}
				}
				JOINT RightShoulder
				{
					OFFSET 0 0 0
					CHANNELS 3 Zrotation Yrotation Xrotation
					JOINT RightArm
					{
						OFFSET -3.41766 0.93592 -0.10019
						CHANNELS 3 Zrotation Yrotation Xrotation
						JOINT RightForeArm
						{
							OFFSET -5.33589 -0.00000 -0.00000
							CHANNELS 3 Zrotation Yrotation Xrotation
							JOINT RightHand
							{
								OFFSET -3.64134 -0.00000 -0.00000
								CHANNELS 3 Zrotation Yrotation Xrotation
								JOINT RightFingerBase
								{
									OFFSET 0 0 0
									CHANNELS 3 Zrotation Yrotation Xrotation
									JOINT RightHandIndex1
									{
										OFFSET -0.73481 -0.00000 -0.00000
										CHANNELS 3 Zrotation Yrotation Xrotation
										End Site
										{
											OFFSET -0.59242 -0.00000 -0.00000
										}
									}
								}
								JOINT RThumb
								{
									OFFSET 0 0 0
									CHANNELS 3 Zrotation Yrotation Xrotation
									End Site
									{
										OFFSET -0.60147 -0.00000 0.60147
									}
								}
							}
						}
					}
				}
			}
		}
	}
}
MOTION
Frames: 7
Frame Time: .0083333
-3.9101 17.9362 -3.9835 0 0 0 0 0 0 -21 0 0 0 0 0 0 0 0 0 0 0 0 0 0 21 0 0 0 0 0 0 0 0 0 0 0 0 0 0 0 0 0 0 0 0 0 0 -16 0 0 21 0 0 11 0 0 0 -8 0 0 0 0 0 0 0 0 0 0 0 0 0 0 0 0 0 0 0 0 8 0 0 0 0 0 0 0 0 0 0 0 0 0 0 0 0 0
-3.9101 17.9362 -3.9835 -0.1478 1.2285 5.2465 0.0000 0.0000 0.0000 -14.3002 -8.0093 -13.6095 1.9326 8.7243 24.9366 0.1021 7.7481 -12.9890 1.0769 -6.5962 -18.5245 0.0000 0.0000 0.0000 22.1872 7.0098 -10.6106 -2.1286 -9.1289 26.1994 -1.0221 3.3290 -18.2827 -0.4369 -4.2414 11.7567 -2.1648 -1.7509 4.4363 1.6077 -2.4055 0.0549 3.0189 -1.1687 -2.2712 -13.1103 -8.7613 -20.9909 5.5596 -9.4111 21.5175 2.6197 -4.6867 11.3876 -0.0000 0.0000 0.0000 -88.5871 -4.1576 21.1880 21.2294 -32.0951 -6.1714 -0.0000 -0.0000 5.6854 10.2624 30.2187 5.2067 -7.1250 0.0000 -0.0000 -23.7789 58.9873 -8.4263 -0.0000 0.0000 0.0000 85.4301 -1.4549 20.8557 -19.2415 29.7176 -5.1500 0.0000 0.0000 20.2779 -18.5980 1.0987 -0.3697 7.1250 -0.0000 -0.0000 6.2038 -28.7977 2.4612
-3.9376 17.9379 -3.9998 -0.1844 1.0137 5.2853 0.0000 0.0000 0.0000 -14.1542 -7.9685 -13.7313 1.9373 8.7343 24.9675 0.0883 7.9248 -12.9681 1.0469 -6.5066 -18.2617 0.0000 0.0000 0.0000 22.3063 7.1107 -10.7008 -2.1271 -9.1259 26.1898 -1.0139 3.3734 -18.1995 -0.4453 -4.2815 11.8699 -2.0939 -1.7052 4.5014 1.6709 -2.3403 0.1078 3.0417 -1.1375 -2.2579 -13.0050 -8.7319 -21.0075 5.4760 -9.3794 21.5181 2.5778 -4.6736 11.3769 -0.0000 0.0000 0.0000 -88.7051 -4.0769 21.5025 21.4651 -32.3672 -6.2971 -0.0000 -0.0000 5.5939 10.3795 30.2052 5.2649 -7.1250 0.0000 -0.0000 -23.6485 59.0012 -8.3847 -0.0000 0.0000 0.0000 85.3214 -1.3659 20.5145 -18.9323 29.3345 -4.9977 0.0000 0.0000 20.5754 -18.6754 1.0104 -0.3415 7.1250 -0.0000 -0.0000 6.1488 -28.8902 2.4256
-3.9684 17.9401 -4.0172 -0.1276 0.6639 5.4056 0.0000 0.0000 0.0000 -14.0999 -7.7662 -13.9661 1.9363 8.7322 24.9611 0.0735 8.0666 -12.8873 1.0167 -6.4152 -17.9938 0.0000 0.0000 0.0000 22.3121 7.4093 -10.8546 -2.1321 -9.1360 26.2218 -1.0074 3.3969 -18.1357 -0.4628 -4.3638 12.1025 -2.1835 -1.6206 4.4825 1.7221 -2.2308 0.1113 3.1378 -1.0819 -2.2455 -12.9264 -8.6697 -20.9226 5.3902 -9.3092 21.5619 2.5492 -4.6485 11.3613 0.0000 -0.0000 0.0000 -88.8530 -3.8625 21.7598 21.7177 -32.6565 -6.4328 -0.0000 -0.0000 5.5222 10.4152 30.1718 5.2781 -7.1250 0.0000 -0.0000 -23.5855 58.9789 -8.3480 0.0000 -0.0000 0.0000 85.2026 -1.2586 20.0225 -18.5441 28.8483 -4.8089 0.0000 0.0000 21.0026 -18.6607 1.1812 -0.3989 7.1250 -0.0000 -0.0000 6.1504 -28.7110 2.4525
-3.9962 17.9432 -4.0324 -0.0846 0.2500 5.5665 0.0000 0.0000 0.0000 -14.0573 -7.5646 -14.2347 1.9405 8.7409 24.9883 0.0516 8.3044 -12.8064 1.0489 -6.5128 -18.2798 0.0000 0.0000 0.0000 22.3072 7.6199 -11.0953 -2.1330 -9.1378 26.2273 -0.9820 3.5736 -17.8707 -0.4714 -4.4037 12.2153 -2.2165 -1.5156 4.3858 1.7604 -2.0902 0.1529 3.1834 -1.0133 -2.1557 -12.8923 -8.6148 -20.9082 5.3456 -9.2336 21.5794 2.5417 -4.6176 11.3532 -0.0000 -0.0000 0.0000 -89.0025 -3.7478 21.9866 21.9030 -32.8673 -6.5331 -0.0000 -0.0000 5.4938 10.4560 29.7789 5.2368 -7.1250 0.0000 -0.0000 -23.2390 58.6307 -8.0204 -0.0000 -0.0000 0.0000 85.1305 -1.0494 19.4681 -18.2134 28.4295 -4.6504 0.0000 0.0000 21.6391 -18.6924 1.1837 -0.4004 7.1250 -0.0000 -0.0000 6.1257 -28.7084 2.4429
-4.0199 17.9481 -4.0453 -0.1069 -0.0096 5.6798 0.0000 0.0000 0.0000 -13.9501 -7.4771 -14.4189 1.9425 8.7452 25.0014 0.0315 8.5007 -12.7067 1.0793 -6.6033 -18.5453 0.0000 0.0000 0.0000 22.3789 7.6851 -11.2963 -2.1353 -9.1424 26.2419 -0.9595 3.9015 -17.6146 -0.4754 -4.4220 12.2670 -2.0935 -1.4561 4.3322 1.7849 -2.0034 0.2240 3.1313 -0.9735 -2.0619 -12.8358 -8.6053 -20.9679 5.3090 -9.2194 21.5675 2.5203 -4.6095 11.3532 0.0000 -0.0000 0.0000 -89.1044 -3.6930 22.2335 22.0104 -32.9888 -6.5915 -0.0000 -0.0000 5.5502 11.1672 28.4480 5.3722 -7.1250 0.0000 -0.0000 -21.5414 57.5626 -6.8375 0.0000 -0.0000 0.0000 85.0969 -0.9145 18.9546 -17.9837 28.1362 -4.5415 0.0000 0.0000 22.2701 -18.8596 0.9851 -0.3365 7.1250 -0.0000 -0.0000 6.0071 -28.9168 2.3653
-4.0446 17.9496 -4.0595 -0.1351 -0.1718 5.6789 0.0000 0.0000 0.0000 -13.8288 -7.4482 -14.4888 1.9450 8.7507 25.0184 0.0133 8.6642 -12.5981 1.0741 -6.5881 -18.5005 0.0000 0.0000 0.0000 22.4855 7.7873 -11.3339 -2.1371 -9.1459 26.2529 -0.9484 4.0626 -17.4899 -0.5106 -4.5804 12.7155 -2.0184 -1.4418 4.4582 1.8506 -1.9811 0.2857 3.1585 -0.9633 -2.0708 -12.7931 -8.5806 -21.0091 5.2447 -9.1784 21.6385 2.4961 -4.5953 11.3778 -0.0000 0.0000 0.0000 -89.2482 -3.5921 22.4202 22.1026 -33.0927 -6.6418 -0.0000 -0.0000 5.6018 12.2370 27.0075 5.6248 -7.1250 0.0000 -0.0000 -19.5048 56.4400 -5.6204 -0.0000 0.0000 0.0000 84.9895 -0.8140 18.5077 -17.6641 27.7249 -4.3918 0.0000 0.0000 22.3027 -18.6533 0.9044 -0.3053 7.1250 -0.0000 -0.0000 6.1721 -29.0015 2.4185
